<svg width="28" height="25" viewBox="0 0 28 25" fill="none" xmlns="http://www.w3.org/2000/svg">
<path d="M20.5146 0.513476C22.5636 0.513476 24.2028 1.24526 25.4322 2.70883C26.603 4.23095 27.1885 6.19215 27.1885 8.59241C27.1885 11.8708 26.3103 14.8272 24.554 17.4617C22.7392 20.1547 19.9877 22.4086 16.2995 24.2234L15.3335 22.8184C17.0898 21.7646 18.6997 20.2717 20.1633 18.3398C21.5683 16.4664 22.2709 14.5638 22.2709 12.6319C22.2709 12.105 22.1245 11.6659 21.8318 11.3147C21.5391 11.0219 21.1 10.8756 20.5146 10.8756C19.051 10.8756 17.8216 10.3487 16.8264 9.29493C15.7726 8.2997 15.2457 7.07029 15.2457 5.60671C15.2457 4.14314 15.7726 2.91374 16.8264 1.9185C17.8216 0.981818 19.051 0.513476 20.5146 0.513476ZM5.32266 0.513477C7.37167 0.513477 9.01087 1.24526 10.2403 2.70883C11.4111 4.23095 11.9966 6.19215 11.9966 8.59241C11.9966 11.8708 11.1184 14.8272 9.36213 17.4617C7.5473 20.1547 4.79578 22.4086 1.10757 24.2234L0.141607 22.8184C1.8979 21.7646 3.50783 20.2717 4.97141 18.3398C6.37644 16.4664 7.07895 14.5638 7.07895 12.6319C7.07895 12.105 6.93259 11.6659 6.63988 11.3147C6.34716 11.0219 5.90809 10.8756 5.32266 10.8756C3.85909 10.8756 2.62968 10.3487 1.63445 9.29493C0.580679 8.2997 0.0537934 7.07029 0.0537932 5.60671C0.0537931 4.14314 0.580679 2.91374 1.63445 1.91851C2.62968 0.981819 3.85909 0.513477 5.32266 0.513477Z" fill="black" fill-opacity="0.11"/>
</svg>
