<svg width="28" height="25" viewBox="0 0 28 25" fill="none" xmlns="http://www.w3.org/2000/svg">
<path d="M6.73543 24.3452C4.68642 24.3452 3.04722 23.6134 1.81781 22.1498C0.646953 20.6277 0.0615234 18.6665 0.0615234 16.2662C0.0615234 12.9878 0.939668 10.0314 2.69596 7.39697C4.51079 4.70399 7.26231 2.45008 10.9505 0.635254L11.9165 2.04028C10.1602 3.09406 8.55026 4.5869 7.08668 6.51882C5.68165 8.3922 4.97914 10.2948 4.97914 12.2268C4.97914 12.7537 5.12549 13.1927 5.41821 13.544C5.71092 13.8367 6.15 13.9831 6.73543 13.9831C8.199 13.9831 9.4284 14.5099 10.4236 15.5637C11.4774 16.5589 12.0043 17.7884 12.0043 19.2519C12.0043 20.7155 11.4774 21.9449 10.4236 22.9401C9.4284 23.8768 8.199 24.3452 6.73543 24.3452ZM21.9273 24.3452C19.8783 24.3452 18.2391 23.6134 17.0097 22.1498C15.8389 20.6277 15.2534 18.6665 15.2534 16.2662C15.2534 12.9878 16.1316 10.0314 17.8879 7.39697C19.7027 4.70399 22.4542 2.45008 26.1424 0.635254L27.1084 2.04028C25.3521 3.09406 23.7422 4.5869 22.2786 6.51882C20.8736 8.3922 20.171 10.2948 20.171 12.2268C20.171 12.7537 20.3174 13.1927 20.6101 13.544C20.9028 13.8367 21.3419 13.9831 21.9273 13.9831C23.3909 13.9831 24.6203 14.5099 25.6155 15.5637C26.6693 16.5589 27.1962 17.7884 27.1962 19.2519C27.1962 20.7155 26.6693 21.9449 25.6155 22.9401C24.6203 23.8768 23.3909 24.3452 21.9273 24.3452Z" fill="black" fill-opacity="0.11"/>
</svg>
