<svg width="145" height="145" viewBox="0 0 145 145" fill="none" xmlns="http://www.w3.org/2000/svg">
<path d="M108.883 36.8633C116.686 37.6256 121.938 39.3602 125.857 43.2857C132.892 50.3144 132.892 61.6348 132.892 84.2695C132.892 106.904 132.892 118.224 125.857 125.253C118.828 132.288 107.508 132.288 84.8733 132.288H60.8641C38.2294 132.288 26.9091 132.288 19.8804 125.253C12.8457 118.23 12.8457 106.91 12.8457 84.2695C12.8457 61.6348 12.8457 50.3144 19.8804 43.2857C23.7999 39.3602 29.0519 37.6256 36.8549 36.8633" stroke="#9747FF" stroke-width="3.94672"/>
<path d="M60.8642 36.2514H84.8734M66.8665 54.2583H78.8711M49.814 71.0647L45.4923 67.4634C41.2487 63.922 39.1239 62.1513 37.9894 59.7324C36.855 57.3075 36.855 54.5464 36.855 49.0123V42.2537C36.855 28.1063 36.855 21.0296 41.2487 16.6359C45.6424 12.2422 52.7191 12.2422 66.8665 12.2422H78.8711C93.0185 12.2422 100.089 12.2422 104.489 16.6359C108.883 21.0296 108.883 28.1063 108.883 42.2537V49.0183C108.883 54.5404 108.883 57.3075 107.748 59.7324C106.614 62.1513 104.489 63.922 100.245 67.4574L95.9236 71.0587C84.9034 80.2423 79.3873 84.84 72.8688 84.84C66.3503 84.84 60.8402 80.2483 49.814 71.0587V71.0647Z" stroke="#9747FF" stroke-width="3.94672" stroke-linecap="round"/>
<path d="M36.855 60.2617L49.814 71.0659C60.8402 80.2494 66.3503 84.8411 72.8688 84.8411C79.3873 84.8411 84.9034 80.2494 95.9236 71.0599L108.883 60.2617" stroke="#9747FF" stroke-width="3.94672" stroke-linecap="round"/>
</svg>
