<svg width="161" height="162" viewBox="0 0 161 162" fill="none" xmlns="http://www.w3.org/2000/svg">
<path d="M53.8884 50.8385L49.1726 46.101M73.6388 135.55L24.9598 86.6475C22.4918 84.1682 21.0911 80.8178 21.0444 77.32L20.4107 27.1378C20.3991 26.2414 20.5662 25.3517 20.9023 24.5213C21.2384 23.6908 21.7367 22.9364 22.3677 22.3025C22.9987 21.6686 23.7497 21.168 24.5764 20.8304C25.4031 20.4927 26.2887 20.3248 27.181 20.3365L77.134 20.9731C80.6211 21.0179 83.9528 22.4293 86.4189 24.9064L135.098 73.8088C139.594 78.3184 143.049 86.9356 137.926 92.0818L91.8351 138.384C86.7057 143.537 78.1279 140.059 73.6388 135.55Z" stroke="#9747FF" stroke-width="2.93733" stroke-linecap="round" stroke-linejoin="round"/>
</svg>
