<svg width="155" height="155" viewBox="0 0 155 155" fill="none" xmlns="http://www.w3.org/2000/svg">
<path d="M32.7764 45.1875L24.9648 50.4016C19.3595 54.1342 16.5569 56.0005 15.0369 58.8481C13.5169 61.7021 13.5297 65.0499 13.5554 71.7391C13.581 79.8071 13.658 88.0163 13.8632 96.3281C14.3571 116.049 14.6008 125.907 21.8543 133.154C29.1015 140.401 39.0936 140.658 59.0778 141.158C71.473 141.468 83.874 141.468 96.2692 141.158C116.253 140.658 126.246 140.408 133.493 133.154C140.74 125.907 140.99 116.049 141.484 96.3281C141.689 88.0163 141.766 79.8071 141.792 71.7455C141.811 65.0499 141.824 61.7021 140.304 58.8545C138.79 56.0005 135.988 54.1342 130.382 50.4016L122.564 45.1875" stroke="#9747FF" stroke-width="2.81136" stroke-linecap="round" stroke-linejoin="round"/>
<path d="M13.5361 64.4297L57.8721 91.0325C67.5179 96.8175 72.3408 99.7035 77.6703 99.7035C82.9999 99.7035 87.8228 96.8175 97.4685 91.0261L141.805 64.4297" stroke="#9747FF" stroke-width="2.81136" stroke-linecap="round" stroke-linejoin="round"/>
<path d="M32.7764 77.2514V38.7709C32.7764 26.6752 32.7764 20.6337 36.5346 16.8755C40.2929 13.1172 46.3343 13.1172 58.43 13.1172H96.9106C109.006 13.1172 115.048 13.1172 118.806 16.8755C122.564 20.6337 122.564 26.6752 122.564 38.7709V77.2514" stroke="#9747FF" stroke-width="2.81136" stroke-linecap="round" stroke-linejoin="round"/>
<path d="M63.3104 40.5376C68.4732 37.6067 72.9755 38.7868 75.6819 40.6659C76.7914 41.4355 77.3494 41.8267 77.6701 41.8267C77.9908 41.8267 78.5487 41.4419 79.6582 40.6723C82.3647 38.7868 86.8669 37.6067 92.0297 40.544C98.8023 44.3857 100.329 57.0714 84.7184 67.7754C81.7362 69.8149 80.2483 70.8346 77.6701 70.8346C75.0919 70.8346 73.604 69.8149 70.6282 67.7754C55.0115 57.0714 56.5379 44.3857 63.3169 40.5376" stroke="#9747FF" stroke-width="2.81136" stroke-linecap="round" stroke-linejoin="round"/>
</svg>
