<svg width="147" height="125" viewBox="0 0 147 125" fill="none" xmlns="http://www.w3.org/2000/svg">
<path d="M73.6523 32.168C78.7266 12.3688 97.8918 2.25921 139.619 2.07425C140.286 2.07177 140.947 2.1998 141.564 2.45098C142.18 2.70216 142.741 3.07151 143.213 3.53775C143.684 4.00399 144.058 4.5579 144.312 5.16754C144.566 5.77719 144.696 6.43052 144.693 7.08987V97.3711C144.693 98.7013 144.159 99.977 143.207 100.918C142.255 101.858 140.965 102.387 139.619 102.387C99.024 102.387 83.3411 110.477 73.6523 122.449M73.6523 32.168C68.5779 12.3688 49.4127 2.25921 7.68571 2.07425C7.01864 2.07177 6.35766 2.1998 5.74087 2.45098C5.12409 2.70216 4.5637 3.07151 4.092 3.53775C3.6203 4.00399 3.24662 4.5579 2.9925 5.16754C2.73838 5.77719 2.60885 6.43052 2.61136 7.08987V96.766C2.61136 99.8632 4.5523 102.387 7.68571 102.387C48.2805 102.387 64.0205 110.537 73.6523 122.449M73.6523 32.168V122.449" stroke="#9747FF" stroke-width="3.94672" stroke-linecap="round" stroke-linejoin="round"/>
</svg>
