<svg width="194" height="169" viewBox="0 0 194 169" fill="none" xmlns="http://www.w3.org/2000/svg">
<path fill-rule="evenodd" clip-rule="evenodd" d="M51.0147 36.3398H143.105C147.99 36.3398 152.674 38.0229 156.128 41.0188C159.582 44.0146 161.523 48.0779 161.523 52.3147V116.214C161.523 120.451 159.582 124.514 156.128 127.51C152.674 130.506 147.99 132.189 143.105 132.189H51.0147C46.1299 132.189 41.4452 130.506 37.9912 127.51C34.5371 124.514 32.5967 120.451 32.5967 116.214V52.3147C32.5967 48.0779 34.5371 44.0146 37.9912 41.0188C41.4452 38.0229 46.1299 36.3398 51.0147 36.3398Z" stroke="#9747FF" stroke-width="3.94672" stroke-linecap="round" stroke-linejoin="round"/>
<path d="M51.0146 92.2534H97.0597M51.0146 108.228H97.0597M124.687 52.3164H133.896C136.338 52.3164 138.68 53.1579 140.408 54.6559C142.135 56.1538 143.105 58.1854 143.105 60.3038V68.2912C143.105 70.4096 142.135 72.4412 140.408 73.9392C138.68 75.4371 136.338 76.2786 133.896 76.2786H124.687C122.244 76.2786 119.902 75.4371 118.175 73.9392C116.448 72.4412 115.478 70.4096 115.478 68.2912V60.3038C115.478 58.1854 116.448 56.1538 118.175 54.6559C119.902 53.1579 122.244 52.3164 124.687 52.3164Z" stroke="#9747FF" stroke-width="3.94672" stroke-linecap="round" stroke-linejoin="round"/>
</svg>
