<svg width="226" height="226" viewBox="0 0 226 226" fill="none" xmlns="http://www.w3.org/2000/svg">
<circle cx="113.031" cy="113.122" r="112.88" fill="#F0F9F4"/>
<path fill-rule="evenodd" clip-rule="evenodd" d="M113.663 84.5151C105.399 74.8842 91.6181 72.2935 81.2637 81.1125C70.9093 89.9316 69.4515 104.677 77.5829 115.107C84.3436 123.779 104.804 142.069 111.51 147.989C112.26 148.651 112.635 148.982 113.072 149.113C113.454 149.226 113.872 149.226 114.254 149.113C114.692 148.982 115.067 148.651 115.817 147.989C122.523 142.069 142.983 123.779 149.744 115.107C157.875 104.677 156.595 89.8388 146.063 81.1125C135.53 72.3863 121.927 74.8842 113.663 84.5151Z" stroke="#28A642" stroke-width="8.26682" stroke-linecap="round" stroke-linejoin="round"/>
</svg>
